<svg xmlns="http://www.w3.org/2000/svg" width="259" height="592"><g fill="none" fill-rule="evenodd"><path fill="#38BDE944" d="M0 501h60v-25H0zm63 0h60v-25H63zm65 0h51v-25h-51zm-34 33h56v-27H94zm-61 0h54v-27H33zM0 563h58v-22H0zm65 0h51v-22H65zm63 0h51v-22h-51zm62 0h53v-22h-53zm-34 29h58v-22h-58z"/><path fill="#38BDE944" d="M205.564 270v22.857h-2.548v2.858h-2.548v5.714h-2.547v5.715h-2.548v5.714h-2.548v2.857h-2.547v5.714h-2.548v19.999h2.548v2.859h2.547v45.715h-2.547v5.712h-2.548V381.43h-10.19v-25.716h2.547v-19.999h-5.094v-5.714h-2.546v-2.859h-2.548v-2.856h-2.548v-2.857h-2.547v-2.858h-2.547v-2.856h-2.548v-2.857h-2.547v-5.714h-2.549v-2.858h-2.546v2.858h-2.548V310h-2.548v5.715h-2.547v2.856h-2.546v2.858h-2.55v2.857h-2.547v2.856h-2.547v2.859h-2.548v2.857h-2.547v2.857h-5.095v11.429h-2.546v-2.857h-2.548v-2.859h-2.547v-5.713h-2.548v-2.857h-2.55V330h-2.546v-2.859h-2.546v-2.856h-2.549v-2.857h-2.547v-2.858H98.57V310h17.833v2.858h25.475v-5.714h-2.55v-2.858h-7.642v-2.857h-2.547v-2.856h-5.095v-2.858h-5.094v-2.858h-5.095v-2.856H98.57v2.856h-2.547v22.858h-2.548v2.856h-2.548v2.858H88.38v5.713h-2.547v2.859h-2.548v2.857h-2.548v2.857H78.19v2.857h-2.548v2.856h-2.547v5.716h-2.548v14.285h2.548v5.715h2.547v45.714H68V430h2.547v5.714h2.548V470h150.3v-48.571h2.549v-2.858h2.547v-2.856h2.547v-25.713h-10.191v-48.574h2.548V321.43h-2.548v-5.714h-2.546V310h-2.547v-2.856h-2.548v-5.715h-2.548v-5.714h-2.547v-11.429h10.19v2.857h25.474v-5.714h-2.546v-2.858h-10.191v-2.856h-5.094v-2.858h-5.097V270h-15.283zm-89.16 108.571v-11.427h2.546v-2.859h2.548v-2.856h2.546v-8.571h2.548v28.571h-10.189v-2.858z" opacity=".95"/><g opacity=".566"><path fill="#38BDE944" d="M34 430H23V20h11z"/><path fill="#2AA6CF55" d="M84 24v4.365l-3.546-.024v2.171h-3.547v2.762h-3.35v2.565h-3.349v3.551h-3.743v2.959h-3.153v2.566H60.16v1.973h-3.941v2.96h-3.546v2.959h-3.744v2.763h-3.546v2.959h-3.546v2.96h-3.465v3.552H34.94V68H31V24z"/><path fill="#38BDE944" d="M46.976 47.996h-.496v-.994h.496zm2.482-.994h-.497v-.994h.497zm-4.964-5.963h-.496v-.994h.496zm5.46 0h-.496v-.994h.496zm7.446-1.988h-.496v-.994h.496zm-13.899-2.982h-.496v-.993h.496zm1.986-.993h-.496v-.994h.496zm5.46 0h-.496v-.994h.496zm-.496-.994h-.497v-.994h.497zm5.956-.994h-.496v-.994h.496z"/><path fill="#2AA6CF55" d="M42.012 32.094h-.496V31.1h.496z"/><path fill="#38BDE944" d="M46.976 32.094h-.496V31.1h.496zm2.482 0h-.497V31.1h.497zm-.993-.994h-.496v-.994h.496z"/><path fill="#2AA6CF55" d="M48.961 44.021h.497v-.994h.496v-1.988h.497v-.994h.496v-1.988h.496v-.994H58.392v.994h-1.488v.994h-.993v.994h-.993v.994h-.993v.994h-.993v.994H51.443v.994h-.992v.994h-.993v.993h-.993v-.993h.496zm-2.978 0v-1.988h-.496v-.994h-.497v-.994h-.496v-.994h-.496v-1.988H50.451v1.988h-.497v.994h-.496v1.988h-.497v.994h-.496v1.988h-.496v.993h-.993v-.993h-.497v-.994z"/><path fill="#38BDE944" d="M41.516 42.033h-.496v-.994h.496zm-.993-.994h-.496v-.994h.496zm-.993-.994h-.496v-.994h.496zm-.992-.994h-.496v-.994h.496zm-1.489-.994h-.497v-.994h.497z"/><path fill="#2AA6CF55" d="M40.027 37.063H43.005v.994h.496v.994h.497v1.988h.496v.994h.496v.994h.497v.994h.496v.994h.496v.993h-.992v-.993h-.993v-.994h-.993v-.994h-.993v-1.988h-.992v-.994h-.496v-.994h-.993v-.994h-.993v-.994h.496zm5.956-5.963h-.496v.994h-.497v.994h-.496v.994h-.496v.993h-.993v-1.987h-.497v-2.982h-.496v-.994h4.467v.994h-.496zm6.453 0v.994h-.496v.994h-.497v1.987h-.496v-.993h-.496v-.994h-.497v-.994h-.496V31.1h-.497v-.994h-.496v-.994h4.468v.994h-.497z"/><path fill="#38BDE944" d="M42.012 42.033h-.496v-.994h.496z"/><path fill="#2AA6CF55" d="M38.041 37.063h.993v.994H37.048v-.994h.497z"/><path fill="#38BDE944" d="M51.443 36.069h-.496v-.993h.496z"/><path fill="#2AA6CF55" d="M40.027 34.082v-.994h.496V31.1h.497v-1.988h.496v2.982h.496v1.988h.496v1.987H39.53v-.994h.497z"/><path fill="#38BDE944" d="M44.494 34.082h.496v1.987h-.992v-.994h.496z"/><path fill="#2AA6CF55" d="M52.436 34.082v-.994h.497V31.1h.496v-1.988h.496v.994h.496v.994h.993v.994h.497v.994h.993v.994h.496v.993h.993v.994H51.94v-.994h.496z"/><path fill="#38BDE944" d="M45.487 33.088h.496v.994h-.993v-.994zm6.453.994h-.497v-.994h.497zm-5.46-.994h-.497v-.994h.497z"/><path fill="#2AA6CF55" d="M47.969 30.106v.994h.496v.994h.496v.994h.497v.994h.496v.993h.497v.994h-2.979V31.1h-.496v-.994h.496z"/><path fill="#38BDE944" d="M53.429 42.033h.496v-.994h.993v.994h-.993v.994h-.992v-.994zm-6.453-11.927v.994h-.496v.994h-.497v.994h-.993v-.994h.497V31.1h.496v-.994h.497zm-2.482 15.902v-.994h.993v.994h-.497zm2.482-.993v.993h.993v-.993h.496v.993h.496v.994h-.496v.994H46.976v-.994H45.487v-.994h.993v-.993zm3.475 0v.993h-.993v-.993h.496zm-6.95 0v-.994h.993v.994h-.496zm2.979 0h-.497v-.994h.497zm4.467-.994h.496v.994h-.992v-.994zm-8.439 0v-.994h-.992v-.994h.992v.994h.993v.994h-.496zm5.957-.994h.496v-.994h.497v-.994h.496v1.988h-.496v.994h-.497v.993h-.496v-.993zm3.475 0h.496v.994h-.993v-.994zm-10.92-1.988v.994h-.993v-.994h.496zm-.993-.994v.994h-.993v-.994h.496zm4.963.994h.497v.994h.496v1.988h-.496v-.994h-.497v-.994h-.496v-1.988h.496zm10.424-.994h.497v.994h-.993v-.994zm-16.38-.994v.994h-.993v-.994h.497zm5.46.994h-.496v-.994h.496zm5.46-.994h.993v.994h-.496v.994h-.497v-.994zm6.453 0h.497v.994h-.993v-.994zm-18.366-.994v.994h-.993v-.994h.497z"/><path fill="#38BDE944" d="M53.925 28.118v.994h-.496V31.1h-.497v1.988h-.496v1.987h-.496v.994h6.452v-.994h.498v.994h.992v.994h-.497v.994h-.993v.994H57.4v-.994h.992v-.994h-6.949v.994h-.496v.994h-.496v-1.988h.496-6.949v1.988h-.497v-.994h-.496v-.994h-6.453v.994h-.496v-.994h-.993v-.993h.993v-.994h.496v-.993h.993v.993h-.497v.994h5.46v-1.988h-.496V31.1h-.496v-1.988h-.496v-.994h12.905zm-5.956 1.988H46.48v-.994h-4.468v.994h.496v2.982h.497v2.981h.495v-.994h.497v.994h6.453v-.994h.496v.994h.496v-1.987h.498v-1.988h.496v-1.988h.496v-.994h-4.467v.994h-.496z"/><path fill="#38BDE944" d="M44.494 35.076h-.496v-.994h.496zm5.957 0h-.497v-.994h.497zm6.949-.001v-.993h-.496v-.994h.992v.994h.496v.993h-.496zm-12.41-.993h-.496v-.994h.496zm-6.452-.994v.994h-.993v-.994h.496v-.994h.993v.994zm11.416-.994v1.988h-.496v-.994h-.497v-.994h.497zm6.453 0h-.993V31.1h.993v.994h.497v.994h-.497zm-7.446-.994v.994h-.496v-1.988h.496zm5.46 0v-.994h.993v.994h-.496zm-13.898-.994v.994h-.496v.994h-.993V31.1h.496v-.994h.497v-.994h.993v.994zm13.402 0v-.994h.993v.994h-.497z"/><path fill="#2AA6CF55" d="M42.508 42.033h-.496v-.994h.496zm-2.978-3.976h.497v.994h.993v.994h.496v.994h-.993v-.994h-.993v-.994h-.992v-.994h.496zm5.957-3.975h.496v-.994h.497v-.994h.496V31.1h.496v4.969H44.99v-.994h.497zm-7.942.993v-.993h.993v-.994h.496v-.994h.993V31.1h.496v1.988h-.496v1.987h-.497v.994h-2.481v-.994zM41.02 31.1h-.497v-.994h.497z"/><path fill="#38BDE944" d="M36.497 20v-3.092H40V4.772l-3.437-.008V2H21.144v2.77H17v12.589h4.012V20z"/><path fill="#2AA6CF55" d="M36.657 0v2.816l1.72.005L40 2.824v14.028h-3.407V20H19.902v-2.69H16V2.821h4.03V0h16.627zm1.716 4.49-3.344-.008V1.669H21.658v2.82h-4.03v11.153h3.902v2.69h13.436v-3.15h3.407V4.49z"/><path fill="#5DCBF4" d="M3.302 430v2.455H7v3.361h3.566v2.843H14v25.07h-3.434v2.714H6.472v2.714H3.698V472H0v-42z"/><path fill="#6ADAFF" d="M41 441H14v24h27z"/><path fill="#38BDE944" d="M55 433v42h-3.698v-2.843h-2.774v-2.714h-4.094v-2.714H41v-25.07h3.434v-2.843H48v-3.361h3.698V433z"/><path fill="#5BCCF1" d="M41.604 464v2.625h3.337v2.75h3.465v3.25H52V475H4v-2.625h3.337V470h3.593v-3.25h3.209V464z"/><path fill="#38BDE944" d="M51 430v2.625h-3.337V435h-3.594v3.25h-3.208V441H13.396v-2.625h-3.337v-2.75H6.594v-3.25H3V430z"/></g><path fill="#38BDE944" d="M92 592h58v-22H92zm-56 0h51v-22H36zm-36 0h25v-22H0zm0-58h24v-27H0zm156 0h58v-27h-58zm34-33h51v-25h-51z"/><path fill="#38BDE944" d="M247.742 476v30.325H219v27.574h28.742v35.635H219V592h40V476z"/></g></svg>